<mxfile host="app.diagrams.net" agent="Mozilla/5.0 (X11; Ubuntu; Linux x86_64; rv:135.0) Gecko/20100101 Firefox/135.0" version="26.0.13">
  <diagram name="Page-1" id="58cdce13-f638-feb5-8d6f-7d28b1aa9fa0">
    <mxGraphModel dx="2098" dy="2073" grid="1" gridSize="10" guides="1" tooltips="1" connect="1" arrows="1" fold="1" page="1" pageScale="1" pageWidth="1100" pageHeight="850" background="none" math="0" shadow="0">
      <root>
        <mxCell id="0" />
        <mxCell id="1" parent="0" />
        <mxCell id="3GN9qdYrXNCfFoJ_vuwS-24" style="edgeStyle=orthogonalEdgeStyle;rounded=0;orthogonalLoop=1;jettySize=auto;html=1;entryX=0;entryY=0.5;entryDx=0;entryDy=0;" edge="1" parent="1" source="3GN9qdYrXNCfFoJ_vuwS-1" target="3GN9qdYrXNCfFoJ_vuwS-19">
          <mxGeometry relative="1" as="geometry" />
        </mxCell>
        <mxCell id="3GN9qdYrXNCfFoJ_vuwS-1" value="Power on" style="ellipse;whiteSpace=wrap;html=1;aspect=fixed;" vertex="1" parent="1">
          <mxGeometry x="80" y="110" width="80" height="80" as="geometry" />
        </mxCell>
        <mxCell id="3GN9qdYrXNCfFoJ_vuwS-29" value="Floor found. init done" style="edgeStyle=orthogonalEdgeStyle;rounded=0;orthogonalLoop=1;jettySize=auto;html=1;exitX=1;exitY=0.5;exitDx=0;exitDy=0;entryX=0;entryY=0.5;entryDx=0;entryDy=0;" edge="1" parent="1" source="3GN9qdYrXNCfFoJ_vuwS-19" target="3GN9qdYrXNCfFoJ_vuwS-25">
          <mxGeometry relative="1" as="geometry" />
        </mxCell>
        <mxCell id="3GN9qdYrXNCfFoJ_vuwS-19" value="Initial" style="swimlane;whiteSpace=wrap;html=1;" vertex="1" parent="1">
          <mxGeometry x="230" y="80" width="210" height="140" as="geometry" />
        </mxCell>
        <mxCell id="3GN9qdYrXNCfFoJ_vuwS-20" value="&lt;ul&gt;&lt;li&gt;entry/set motor direction&lt;/li&gt;&lt;li&gt;initialize order&lt;/li&gt;&lt;li&gt;Check/find floor&lt;/li&gt;&lt;/ul&gt;" style="text;html=1;align=center;verticalAlign=middle;resizable=0;points=[];autosize=1;strokeColor=none;fillColor=none;movable=0;rotatable=0;deletable=0;editable=0;locked=1;connectable=0;" vertex="1" parent="3GN9qdYrXNCfFoJ_vuwS-19">
          <mxGeometry y="25" width="190" height="90" as="geometry" />
        </mxCell>
        <mxCell id="3GN9qdYrXNCfFoJ_vuwS-44" value="Order in queue (above current floor)" style="edgeStyle=orthogonalEdgeStyle;rounded=0;orthogonalLoop=1;jettySize=auto;html=1;entryX=0;entryY=0.75;entryDx=0;entryDy=0;" edge="1" parent="1" source="3GN9qdYrXNCfFoJ_vuwS-25" target="3GN9qdYrXNCfFoJ_vuwS-27">
          <mxGeometry relative="1" as="geometry">
            <Array as="points">
              <mxPoint x="680" y="455" />
            </Array>
          </mxGeometry>
        </mxCell>
        <mxCell id="3GN9qdYrXNCfFoJ_vuwS-46" value="Order in queue (above current floor)" style="edgeStyle=orthogonalEdgeStyle;rounded=0;orthogonalLoop=1;jettySize=auto;html=1;entryX=0;entryY=0.25;entryDx=0;entryDy=0;" edge="1" parent="1" source="3GN9qdYrXNCfFoJ_vuwS-25" target="3GN9qdYrXNCfFoJ_vuwS-31">
          <mxGeometry relative="1" as="geometry">
            <Array as="points">
              <mxPoint x="680" y="-145" />
            </Array>
            <mxPoint as="offset" />
          </mxGeometry>
        </mxCell>
        <mxCell id="3GN9qdYrXNCfFoJ_vuwS-49" value="STOP button pressed" style="edgeStyle=orthogonalEdgeStyle;rounded=0;orthogonalLoop=1;jettySize=auto;html=1;entryX=0;entryY=0.5;entryDx=0;entryDy=0;" edge="1" parent="1" source="3GN9qdYrXNCfFoJ_vuwS-25" target="3GN9qdYrXNCfFoJ_vuwS-35">
          <mxGeometry relative="1" as="geometry" />
        </mxCell>
        <mxCell id="3GN9qdYrXNCfFoJ_vuwS-25" value="At floor" style="swimlane;whiteSpace=wrap;html=1;" vertex="1" parent="1">
          <mxGeometry x="640" y="80" width="210" height="140" as="geometry" />
        </mxCell>
        <mxCell id="3GN9qdYrXNCfFoJ_vuwS-26" value="&lt;ul&gt;&lt;li&gt;check ordersExists&lt;/li&gt;&lt;li&gt;check doors&lt;/li&gt;&lt;li&gt;update lights&lt;/li&gt;&lt;li&gt;update orders&lt;/li&gt;&lt;li&gt;update door&lt;/li&gt;&lt;li&gt;timer (3s)&lt;/li&gt;&lt;/ul&gt;" style="text;html=1;align=center;verticalAlign=middle;resizable=1;points=[];autosize=1;strokeColor=none;fillColor=none;movable=1;rotatable=1;deletable=1;editable=1;locked=0;connectable=1;" vertex="1" parent="3GN9qdYrXNCfFoJ_vuwS-25">
          <mxGeometry x="15" y="20" width="160" height="120" as="geometry" />
        </mxCell>
        <mxCell id="3GN9qdYrXNCfFoJ_vuwS-51" value="STOP button pressed" style="edgeStyle=orthogonalEdgeStyle;rounded=0;orthogonalLoop=1;jettySize=auto;html=1;entryX=0;entryY=0.5;entryDx=0;entryDy=0;" edge="1" parent="1" source="3GN9qdYrXNCfFoJ_vuwS-27" target="3GN9qdYrXNCfFoJ_vuwS-41">
          <mxGeometry relative="1" as="geometry">
            <Array as="points">
              <mxPoint x="1220" y="410" />
              <mxPoint x="1220" y="140" />
            </Array>
          </mxGeometry>
        </mxCell>
        <mxCell id="3GN9qdYrXNCfFoJ_vuwS-66" value="Order done" style="edgeStyle=orthogonalEdgeStyle;rounded=0;orthogonalLoop=1;jettySize=auto;html=1;entryX=0.5;entryY=1;entryDx=0;entryDy=0;" edge="1" parent="1" source="3GN9qdYrXNCfFoJ_vuwS-27" target="3GN9qdYrXNCfFoJ_vuwS-25">
          <mxGeometry relative="1" as="geometry">
            <Array as="points">
              <mxPoint x="745" y="370" />
            </Array>
          </mxGeometry>
        </mxCell>
        <mxCell id="3GN9qdYrXNCfFoJ_vuwS-27" value="Move down" style="swimlane;whiteSpace=wrap;html=1;" vertex="1" parent="1">
          <mxGeometry x="820" y="350" width="225" height="140" as="geometry" />
        </mxCell>
        <mxCell id="3GN9qdYrXNCfFoJ_vuwS-28" value="&lt;ul&gt;&lt;li&gt;check orders&lt;/li&gt;&lt;li&gt;check current floor&lt;/li&gt;&lt;li&gt;set motor direction down&lt;/li&gt;&lt;li&gt;update lights&lt;/li&gt;&lt;/ul&gt;" style="text;html=1;align=center;verticalAlign=middle;resizable=1;points=[];autosize=1;strokeColor=none;fillColor=none;movable=1;rotatable=1;deletable=1;editable=1;locked=0;connectable=1;" vertex="1" parent="3GN9qdYrXNCfFoJ_vuwS-27">
          <mxGeometry y="20" width="190" height="100" as="geometry" />
        </mxCell>
        <mxCell id="3GN9qdYrXNCfFoJ_vuwS-50" value="STOP button pressed" style="edgeStyle=orthogonalEdgeStyle;rounded=0;orthogonalLoop=1;jettySize=auto;html=1;entryX=0;entryY=0.5;entryDx=0;entryDy=0;" edge="1" parent="1" source="3GN9qdYrXNCfFoJ_vuwS-31" target="3GN9qdYrXNCfFoJ_vuwS-41">
          <mxGeometry relative="1" as="geometry">
            <mxPoint x="1090" y="270" as="targetPoint" />
            <Array as="points">
              <mxPoint x="1220" y="-110" />
              <mxPoint x="1220" y="140" />
            </Array>
          </mxGeometry>
        </mxCell>
        <mxCell id="3GN9qdYrXNCfFoJ_vuwS-31" value="Move up" style="swimlane;whiteSpace=wrap;html=1;" vertex="1" parent="1">
          <mxGeometry x="820" y="-180" width="210" height="140" as="geometry" />
        </mxCell>
        <mxCell id="3GN9qdYrXNCfFoJ_vuwS-32" value="&lt;ul&gt;&lt;li&gt;check orders&lt;/li&gt;&lt;li&gt;check current floor&lt;/li&gt;&lt;li&gt;set motor direction up&lt;/li&gt;&lt;li&gt;update lights&lt;/li&gt;&lt;/ul&gt;" style="text;html=1;align=center;verticalAlign=middle;resizable=1;points=[];autosize=1;strokeColor=none;fillColor=none;movable=1;rotatable=1;deletable=1;editable=1;locked=0;connectable=1;" vertex="1" parent="3GN9qdYrXNCfFoJ_vuwS-31">
          <mxGeometry x="5" y="20" width="180" height="100" as="geometry" />
        </mxCell>
        <mxCell id="3GN9qdYrXNCfFoJ_vuwS-54" style="edgeStyle=orthogonalEdgeStyle;rounded=0;orthogonalLoop=1;jettySize=auto;html=1;entryX=1;entryY=0.75;entryDx=0;entryDy=0;" edge="1" parent="1" source="3GN9qdYrXNCfFoJ_vuwS-35" target="3GN9qdYrXNCfFoJ_vuwS-25">
          <mxGeometry relative="1" as="geometry">
            <Array as="points">
              <mxPoint x="940" y="185" />
              <mxPoint x="940" y="185" />
            </Array>
          </mxGeometry>
        </mxCell>
        <mxCell id="3GN9qdYrXNCfFoJ_vuwS-55" value="STOP button released" style="edgeLabel;html=1;align=center;verticalAlign=middle;resizable=0;points=[];" vertex="1" connectable="0" parent="3GN9qdYrXNCfFoJ_vuwS-54">
          <mxGeometry x="-0.0264" relative="1" as="geometry">
            <mxPoint as="offset" />
          </mxGeometry>
        </mxCell>
        <mxCell id="3GN9qdYrXNCfFoJ_vuwS-35" value="Stop at floor" style="swimlane;whiteSpace=wrap;html=1;" vertex="1" parent="1">
          <mxGeometry x="980" y="80" width="210" height="140" as="geometry" />
        </mxCell>
        <mxCell id="3GN9qdYrXNCfFoJ_vuwS-36" value="&lt;ul&gt;&lt;li&gt;stop motor&lt;/li&gt;&lt;li&gt;clear orders&lt;/li&gt;&lt;li&gt;update lights&lt;/li&gt;&lt;li&gt;update door&lt;/li&gt;&lt;/ul&gt;" style="text;html=1;align=center;verticalAlign=middle;resizable=1;points=[];autosize=1;strokeColor=none;fillColor=none;movable=1;rotatable=1;deletable=1;editable=1;locked=0;connectable=1;" vertex="1" parent="3GN9qdYrXNCfFoJ_vuwS-35">
          <mxGeometry x="30" y="20" width="130" height="100" as="geometry" />
        </mxCell>
        <mxCell id="3GN9qdYrXNCfFoJ_vuwS-40" style="edgeStyle=orthogonalEdgeStyle;rounded=0;orthogonalLoop=1;jettySize=auto;html=1;entryX=0.633;entryY=0;entryDx=0;entryDy=0;entryPerimeter=0;" edge="1" parent="1" source="3GN9qdYrXNCfFoJ_vuwS-31" target="3GN9qdYrXNCfFoJ_vuwS-25">
          <mxGeometry relative="1" as="geometry">
            <Array as="points">
              <mxPoint x="773" y="-80" />
            </Array>
          </mxGeometry>
        </mxCell>
        <mxCell id="3GN9qdYrXNCfFoJ_vuwS-65" value="&amp;nbsp;Order done" style="edgeLabel;html=1;align=center;verticalAlign=middle;resizable=0;points=[];" vertex="1" connectable="0" parent="3GN9qdYrXNCfFoJ_vuwS-40">
          <mxGeometry x="-0.0145" y="-3" relative="1" as="geometry">
            <mxPoint as="offset" />
          </mxGeometry>
        </mxCell>
        <mxCell id="3GN9qdYrXNCfFoJ_vuwS-57" style="edgeStyle=orthogonalEdgeStyle;rounded=0;orthogonalLoop=1;jettySize=auto;html=1;" edge="1" parent="1" source="3GN9qdYrXNCfFoJ_vuwS-41" target="3GN9qdYrXNCfFoJ_vuwS-56">
          <mxGeometry relative="1" as="geometry" />
        </mxCell>
        <mxCell id="3GN9qdYrXNCfFoJ_vuwS-63" value="STOP button released" style="edgeLabel;html=1;align=center;verticalAlign=middle;resizable=0;points=[];" vertex="1" connectable="0" parent="3GN9qdYrXNCfFoJ_vuwS-57">
          <mxGeometry x="-0.0571" y="5" relative="1" as="geometry">
            <mxPoint as="offset" />
          </mxGeometry>
        </mxCell>
        <mxCell id="3GN9qdYrXNCfFoJ_vuwS-41" value="Stop at shaft" style="swimlane;whiteSpace=wrap;html=1;" vertex="1" parent="1">
          <mxGeometry x="1440" y="70" width="210" height="140" as="geometry" />
        </mxCell>
        <mxCell id="3GN9qdYrXNCfFoJ_vuwS-42" value="&lt;ul&gt;&lt;li&gt;stop motor&lt;/li&gt;&lt;li&gt;clear orders&lt;/li&gt;&lt;li&gt;update lights&lt;/li&gt;&lt;/ul&gt;" style="text;html=1;align=center;verticalAlign=middle;resizable=1;points=[];autosize=1;strokeColor=none;fillColor=none;movable=1;rotatable=1;deletable=1;editable=1;locked=0;connectable=1;" vertex="1" parent="3GN9qdYrXNCfFoJ_vuwS-41">
          <mxGeometry x="30" y="25" width="130" height="90" as="geometry" />
        </mxCell>
        <mxCell id="3GN9qdYrXNCfFoJ_vuwS-59" value="Order in queue (above current floor)" style="edgeStyle=orthogonalEdgeStyle;rounded=0;orthogonalLoop=1;jettySize=auto;html=1;entryX=1;entryY=0.75;entryDx=0;entryDy=0;" edge="1" parent="1" source="3GN9qdYrXNCfFoJ_vuwS-56" target="3GN9qdYrXNCfFoJ_vuwS-27">
          <mxGeometry relative="1" as="geometry">
            <Array as="points">
              <mxPoint x="1880" y="455" />
            </Array>
          </mxGeometry>
        </mxCell>
        <mxCell id="3GN9qdYrXNCfFoJ_vuwS-60" value="Order in queue (above current floor)" style="edgeStyle=orthogonalEdgeStyle;rounded=0;orthogonalLoop=1;jettySize=auto;html=1;entryX=1;entryY=0.25;entryDx=0;entryDy=0;" edge="1" parent="1" source="3GN9qdYrXNCfFoJ_vuwS-56" target="3GN9qdYrXNCfFoJ_vuwS-31">
          <mxGeometry relative="1" as="geometry">
            <Array as="points">
              <mxPoint x="1880" y="-145" />
            </Array>
          </mxGeometry>
        </mxCell>
        <mxCell id="3GN9qdYrXNCfFoJ_vuwS-56" value="" style="rhombus;whiteSpace=wrap;html=1;" vertex="1" parent="1">
          <mxGeometry x="1840" y="100" width="80" height="80" as="geometry" />
        </mxCell>
      </root>
    </mxGraphModel>
  </diagram>
</mxfile>
